<?xml version="1.0" standalone="no"?><!DOCTYPE svg PUBLIC "-//W3C//DTD SVG 1.1//EN" "http://www.w3.org/Graphics/SVG/1.1/DTD/svg11.dtd"><svg t="1553011881702" class="icon" style="" viewBox="0 0 1024 1024" version="1.1" xmlns="http://www.w3.org/2000/svg" p-id="2445" xmlns:xlink="http://www.w3.org/1999/xlink" width="200" height="200"><defs><style type="text/css"></style></defs><path d="M822.558082 63.203484 201.338564 63.203484c-75.092255 0-135.952368 60.838623-135.952368 135.974881l0 621.175515c0 75.136258 60.860113 135.972834 135.952368 135.972834L822.558082 956.326714c75.092255 0 135.950322-60.836577 135.950321-135.972834L958.508403 199.178365c0-75.136258-60.858066-135.974881-135.950321-135.974881zM249.361301 233.738485c38.038338 0 68.844971 27.779693 68.844971 61.784159 0 33.960463-30.806633 61.696154-68.844971 61.696154-38.040385 0-68.847018-27.735691-68.847018-61.696154 0-34.004465 30.806633-61.784158 68.847018-61.784159zm57.446363 370.868679c-18.161638 56.287981-13.652951 35.378765-85.784782 192.0889l-104.502075-65.173348s116.5249-106.006336 140.525524-154.479327c25.266453-51.091632-27.994588-78.354556-27.994588-78.354556l-80.029708-49.889247 43.234687-66.635653c60.365856 44.780903 64.874543 48.600905 105.619526 89.38989 31.513738 31.599695 27.563776 75.479065 8.931416 133.053341zm567.936987 73.076343C854.351182 868.827895 605.716428 797.813514 605.716428 797.813514l13.482059-54.698786 56.329937 12.408611c106.561991 6.783497 94.971002-86.342484 94.971001-86.342484L770.499425 398.565485c0-102.656031-95.399767-113.348558-270.357497-50.748825l41.36613 13.824867c-3.541663 12.021801-16.208147 30.613228-33.014928 54.097082l238.500952 0 0 47.013757L605.973278 462.752366l0 47.013757 141.019781 0 0 47.013756L605.973278 556.779879l0 106.605993c23.485901-6.612605 40.401152-15.500019 56.287981-27.306926l-10.413164-43.320644 62.621223-19.235087 51.777247 126.35478-76.078723 31.643697-13.482059-50.320059c-33.960463 26.062586-104.803951 63.758116-228.281193 60.451814-132.046409 3.350304-98.149391-154.264433-98.149391-154.264433l3.369747-7.126304 92.803639 0c-0.64366 23.527856-8.650007 56.932664 2.360768 74.27668 8.931416 14.255679 37.653575 19.405979 52.509934 20.094664 1.63115 0.215918-12.859889 2.87549 10.648524 2.963495L511.947811 556.779879 370.928031 556.779879l0-47.013756 141.01978 0L511.947811 462.752366l-45.596477 0c-30.311353 23.527856-57.919131 56.073086-57.919131 56.073086l-40.61707-36.879955c28.832675-30.355355 57.725726-79.042217 75.479066-111.200638-14.488992 5.92392-29.388331 11.848862-44.736901 18.632359a690.397063 690.397063 0 0 1-51.478441 57.576323c0.685615 1.072425-66.398246-37.653575-66.398246-37.653574 69.361741-59.293431 108.215654-186.120978 108.215653-186.120978l96.560197 26.961048s-8.113795 18.764366-24.473392 47.486524c386.196783-109.35357 408.607188 67.064418 408.607189 67.064419s25.461905 121.804137 5.154393 312.992527z" p-id="2446" fill="#FF692F"></path></svg>