<?xml version="1.0" standalone="no"?><!DOCTYPE svg PUBLIC "-//W3C//DTD SVG 1.1//EN" "http://www.w3.org/Graphics/SVG/1.1/DTD/svg11.dtd"><svg t="1565148103494" class="icon" viewBox="0 0 1335 1024" version="1.1" xmlns="http://www.w3.org/2000/svg" p-id="10717" xmlns:xlink="http://www.w3.org/1999/xlink" width="260.7421875" height="200"><defs><style type="text/css"></style></defs><path d="M562.876 1174.803h843.935c1.299 0 2.595-0.029 3.89-0.050h-851.714c1.296 0.021 2.589 0.050 3.89 0.050z" fill="#ff5500" p-id="10718"></path><path d="M1326.885 933.993v-843.984c0-132.448-108.366-240.811-240.811-240.811h-843.935c-132.448 0-240.811 108.366-240.811 240.811v843.984c0 131.147 106.253 238.665 236.921 240.762h851.714c130.669-2.099 236.921-109.617 236.921-240.762zM211.734 184.778c5.189-11.499 12.368-21.3 21.596-29.376 9.204-9.203 19.866-16.113 31.965-20.724 12.099-4.589 25.055-6.91 38.874-6.91 13.819 0 27.046 2.319 39.743 6.91 12.665 4.612 23.597 11.523 32.827 20.724 9.203 8.076 16.406 17.878 21.596 29.376 5.181 11.534 7.776 23.619 7.776 36.285 0 12.687-2.589 24.783-7.776 36.285-5.182 11.531-12.394 21.326-21.596 29.374-9.23 8.073-20.172 14.688-32.827 19.866-12.687 5.189-25.924 7.779-39.743 7.779-13.819 0-26.775-2.589-38.874-7.779-12.099-5.181-22.761-11.793-31.965-19.866-9.229-8.046-16.406-17.842-21.596-29.374-5.181-11.501-7.769-23.597-7.769-36.285 0-12.665 2.589-24.752 7.769-36.285zM406.973 590.791c-5.189 28.801-16.417 59.341-33.694 91.573v-0.007c-12.687 23.055-23.326 44.653-31.965 64.789-8.639 20.172-17.008 39.474-25.054 57.879-8.076 18.442-15.842 36.285-23.326 53.561-7.5 17.277-15.277 34.554-23.317 51.831-12.687-9.204-25.647-18.711-38.874-28.506-13.263-9.77-26.783-19.866-40.603-30.236-12.687-9.204-25.647-18.711-38.874-28.506-13.254-9.779-26.783-19.278-40.603-28.507 14.957-11.507 30.236-22.735 45.785-33.693 15.548-10.934 30.799-21.596 45.783-31.965 14.957-11.499 29.644-23.023 44.061-34.554 14.384-11.499 27.341-23.597 38.874-36.285 24.187-24.187 36.285-47.217 36.285-69.108 0-21.866-6.91-42.593-20.737-62.201-14.982-19.571-35.413-38.273-61.33-56.15-25.917-17.841-53.857-34.823-83.796-50.96 5.753-6.91 11.499-13.532 17.277-19.866 5.753-6.318 11.499-12.958 17.277-19.878 5.753-6.91 11.803-13.819 18.139-20.724 6.317-6.91 12.367-13.228 18.145-19.007 48.371 27.647 86.386 55.282 114.032 82.926 27.636 27.647 46.642 55.291 57.010 82.938 11.499 27.636 14.688 55.882 9.508 84.656zM1216.399 552.777c-1.157 32.26-2.886 63.66-5.181 94.164-2.319 30.53-5.779 61.33-10.369 92.435h0.007c-4.615 34.554-12.090 62.201-22.457 82.926-10.369 20.737-23.623 36.875-39.744 48.383-14.982 11.521-32.556 19.293-52.691 23.316-20.162 4.049-41.76 6.049-64.789 6.049-17.277 1.164-34.285 1.729-50.973 1.729h-49.233c-17.277 0-34.285-0.271-50.971-0.859-16.711-0.565-33.694-0.87-50.973-0.87 0-4.589-0.293-9.499-0.859-14.678-0.591-5.187-0.861-10.073-0.861-14.685-1.164-5.755-1.728-10.934-1.728-15.558 0-4.589-0.601-9.769-1.729-15.548h31.094c10.369 0 20.737 0.601 31.095 1.729h32.834c10.369 0 20.729-0.565 31.094-1.729 20.737-1.139 38.874-4.023 54.425-8.639 15.557-4.598 28.513-12.096 38.874-22.464 10.366-10.369 18.145-24.187 23.324-41.462 5.189-17.277 7.779-38.58 7.779-63.93l5.181-196.957c1.141-26.482 1.729-53.265 1.729-80.336 0-27.055-2.886-52.101-8.639-75.159-6.91-23.029-17.573-42.603-31.965-58.74-14.41-16.123-35.413-27.055-63.059-32.834-20.729-4.589-41.462-6.615-62.201-6.041-20.724 0.588-42.053 2.023-63.919 4.319-20.737 1.157-41.472 3.18-62.201 6.041-20.737 2.892-42.064 4.917-63.93 6.046-3.458 0-7.204 0.601-11.228 1.729-4.049 1.164-8.369 1.729-12.958 1.729-3.458 1.164-7.204 2.319-11.228 3.458-4.049 1.158-8.369 2.322-12.958 3.452l65.649 50.111-53.558 50.101h331.724v65.66h-196.966v76.018h196.966v53.561h-196.957v133.036c8.041-2.293 15.818-4.319 23.317-6.046 7.483-1.729 15.251-3.164 23.326-4.319 8.046-2.305 15.825-4.026 23.324-5.189 7.475-1.139 15.254-2.86 23.326-5.181-3.458-3.46-6.343-7.483-8.639-12.099-2.327-4.598-5.187-8.639-8.647-12.096-2.319-4.589-4.91-8.909-7.769-12.958-2.894-4.026-5.484-8.345-7.779-12.958 5.753-2.294 11.803-4.589 18.145-6.911 6.311-2.302 12.958-5.187 19.868-8.639 5.753-2.293 12.096-4.589 19.006-6.916 6.911-2.293 13.228-4.589 19.007-6.91 14.957 9.236 27.647 19.302 38.005 30.236 10.369 10.958 18.415 22.761 24.195 35.423 5.746 12.687 9.499 25.917 11.228 39.735 1.729 13.825 0.861 28.811-2.589 44.923-5.779 5.778-11.534 11.228-17.277 16.416-5.779 5.182-11.534 10.090-17.277 14.678-6.916 4.624-13.263 9.507-19.007 14.688-5.779 5.187-11.534 10.099-17.277 14.688-3.458-4.589-6.639-9.779-9.507-15.55-2.886-5.753-6.049-11.507-9.501-17.277-3.458-4.595-6.639-9.776-9.507-15.557-2.886-5.746-6.041-11.499-9.499-17.277-89.845 33.424-166.724 55.588-230.652 66.521-63.921 10.958-114.892 11.228-152.903 0.861-38.005-11.501-62.789-33.39-74.288-65.651-11.523-32.236-9.806-76.018 5.181-131.309h131.309c0 21.892 1.139 39.465 3.458 52.702 2.294 13.251 5.746 23.916 10.369 31.955 5.746 6.916 12.653 11.826 20.729 14.685 8.046 2.894 17.849 4.918 29.374 6.049h6.911v-153.765h-195.229v-51.831h195.236v-79.477h-38.012v-10.369l-81.206 77.748-70.836-34.554 136.496-176.22c-14.983 5.771-29.105 12.687-42.333 20.724-13.254 8.076-26.212 16.714-38.874 25.917-11.523 9.239-22.457 19.007-32.823 29.376-10.369 10.369-20.172 21.326-29.376 32.834-1.164 3.452-2.319 6.639-3.458 9.499-1.157 2.886-2.319 6.049-3.452 9.501-1.164 2.327-2.589 4.917-4.319 7.776-1.729 2.886-3.187 6.049-4.319 9.501-9.236-6.91-17.875-13.523-25.917-19.866-8.073-6.318-16.711-12.361-25.924-18.139-8.063-5.753-16.406-11.803-25.046-18.145-8.639-6.311-17.573-12.958-26.785-19.866 13.828-21.866 27.916-43.462 42.333-64.789 14.391-21.302 28.506-42.9 42.331-64.789 13.82-20.729 27.916-41.734 42.325-63.062 14.391-21.3 28.506-42.896 42.333-64.789 11.499 3.46 23.316 7.204 35.413 11.23 12.099 4.049 23.889 7.776 35.423 11.228 11.501 3.458 23.317 7.213 35.415 11.236 12.096 4.049 23.889 7.77 35.413 11.228-3.449 6.91-6.343 13.55-8.639 19.866-2.319 6.346-5.181 12.394-8.639 18.139-2.319 6.916-4.91 13.556-7.776 19.876-2.886 6.343-5.477 12.384-7.77 18.137 55.282-25.324 116.325-44.052 183.139-56.15 66.789-12.096 129.578-14.685 188.319-7.776 57.585 5.779 106.826 23.055 147.715 51.831 40.874 28.811 63.635 71.437 68.25 127.857 3.46 36.875 5.458 71.995 6.049 105.392 0.563 33.415 0.271 66.25-0.87 98.473z" fill="#ff5500" p-id="10719"></path></svg>